<svg id="_レイヤー_2" xmlns="http://www.w3.org/2000/svg" viewBox="0 0 1224.14 1224.14"><defs><style>.cls-1{fill:#252525}</style></defs><g id="_レイヤー_1-2"><path class="cls-1" d="M1116.19 655.82c-33.17 0-60.07 26.89-60.07 60.07v300.57c0 48.28-39.27 87.55-87.55 87.55H207.68c-48.28 0-87.55-39.28-87.55-87.55v-760.9c0-48.28 39.28-87.55 87.55-87.55h300.57c33.17 0 60.07-26.89 60.07-60.07s-26.89-60.07-60.07-60.07H207.68C93.17 47.88 0 141.04 0 255.56v760.89c0 114.52 93.17 207.68 207.68 207.68h760.89c114.52 0 207.68-93.17 207.68-207.68V715.88c0-33.17-26.89-60.07-60.07-60.07z"/><path class="cls-1" d="M1112.91 0H786.65c-33.17 0-60.07 26.89-60.07 60.07 0 33.17 26.89 60.07 60.07 60.07h229.81c.85 0 1.7.04 2.54.06L337.45 801.74c-23.46 23.46-23.46 61.49 0 84.95s61.49 23.46 84.95 0l681.54-681.55c.02.85.06 1.69.06 2.54v229.81c0 33.17 26.89 60.07 60.07 60.07 33.17 0 60.07-26.89 60.07-60.07V111.23C1224.14 49.8 1174.34 0 1112.91 0z"/></g></svg>